<svg width="40" height="40" viewBox="0 0 40 40" fill="none" xmlns="http://www.w3.org/2000/svg">
<g clip-path="url(#clip0_261_232)">
<g clip-path="url(#clip1_261_232)">
<rect width="39.8804" height="13.2935" transform="translate(0 26.5869)" fill="#AB1C02"/>
<path d="M2.52044 37.2336C2.18305 37.2336 1.92463 37.1475 1.74516 36.9752C1.57288 36.7958 1.48674 36.5409 1.48674 36.2107V30.6653C1.48674 30.3351 1.57288 30.0839 1.74516 29.9116C1.92463 29.7321 2.18305 29.6424 2.52044 29.6424H5.14776C5.69332 29.6424 6.15633 29.725 6.53679 29.8901C6.92443 30.048 7.21874 30.2741 7.41974 30.5684C7.62074 30.8628 7.72124 31.2073 7.72124 31.6021C7.72124 32.0472 7.59202 32.4277 7.3336 32.7435C7.08235 33.0594 6.73779 33.2747 6.2999 33.3896V33.2173C6.81675 33.3106 7.21515 33.5188 7.49511 33.8418C7.78225 34.1648 7.92582 34.5776 7.92582 35.0801C7.92582 35.7477 7.68534 36.2753 7.20439 36.663C6.73061 37.0434 6.08096 37.2336 5.25543 37.2336H2.52044ZM3.38185 35.78H4.98624C5.35234 35.78 5.61795 35.7118 5.78305 35.5754C5.95533 35.4318 6.04148 35.2201 6.04148 34.9401C6.04148 34.6602 5.95533 34.452 5.78305 34.3156C5.61795 34.1792 5.35234 34.111 4.98624 34.111H3.38185V35.78ZM3.38185 32.6574H4.79242C5.15135 32.6574 5.41336 32.5928 5.57846 32.4636C5.75075 32.3343 5.83689 32.1369 5.83689 31.8713C5.83689 31.6057 5.75075 31.4119 5.57846 31.2899C5.41336 31.1607 5.15135 31.0961 4.79242 31.0961H3.38185V32.6574ZM10.2963 37.3306C9.99482 37.3306 9.76152 37.2408 9.59641 37.0614C9.43131 36.8819 9.34876 36.6235 9.34876 36.2861V32.8835C9.34876 32.5461 9.43131 32.2877 9.59641 32.1082C9.76152 31.9288 9.99482 31.839 10.2963 31.839C10.605 31.839 10.8419 31.9288 11.007 32.1082C11.1793 32.2877 11.2654 32.5461 11.2654 32.8835V36.2861C11.2654 36.6235 11.1829 36.8819 11.0177 37.0614C10.8526 37.2408 10.6122 37.3306 10.2963 37.3306ZM10.2963 31.0745C9.95893 31.0745 9.69691 30.9956 9.51027 30.8376C9.33081 30.6797 9.24108 30.45 9.24108 30.1485C9.24108 29.8542 9.33081 29.6281 9.51027 29.4701C9.69691 29.3122 9.95893 29.2332 10.2963 29.2332C10.6481 29.2332 10.9137 29.3122 11.0931 29.4701C11.2726 29.6281 11.3623 29.8542 11.3623 30.1485C11.3623 30.45 11.2726 30.6797 11.0931 30.8376C10.9137 30.9956 10.6481 31.0745 10.2963 31.0745ZM15.5859 37.3521C15.0476 37.3521 14.6025 37.2695 14.2508 37.1044C13.9062 36.9393 13.6478 36.6917 13.4755 36.3615C13.3032 36.0241 13.2171 35.6041 13.2171 35.1016V33.3465H12.851C12.6212 33.3465 12.4418 33.2855 12.3126 33.1635C12.1905 33.0414 12.1295 32.8655 12.1295 32.6358C12.1295 32.4061 12.1905 32.2338 12.3126 32.119C12.4418 31.997 12.6212 31.9359 12.851 31.9359H13.2171V31.2683C13.2171 30.9525 13.2996 30.712 13.4647 30.5469C13.6298 30.3818 13.8667 30.2992 14.1754 30.2992C14.4841 30.2992 14.7209 30.3818 14.886 30.5469C15.0511 30.712 15.1337 30.9525 15.1337 31.2683V31.9359H16.0167C16.2535 31.9359 16.433 31.997 16.555 32.119C16.6843 32.2338 16.7489 32.4061 16.7489 32.6358C16.7489 32.8655 16.6843 33.0414 16.555 33.1635C16.433 33.2855 16.2535 33.3465 16.0167 33.3465H15.1337V35.037C15.1337 35.3026 15.1947 35.5 15.3168 35.6293C15.446 35.7513 15.647 35.8123 15.9197 35.8123C16.0202 35.8123 16.1172 35.8015 16.2105 35.78C16.3038 35.7585 16.3899 35.7477 16.4689 35.7477C16.5838 35.7405 16.6771 35.7764 16.7489 35.8554C16.8206 35.9272 16.8565 36.0959 16.8565 36.3615C16.8565 36.5768 16.8242 36.7599 16.7596 36.9106C16.695 37.0542 16.5802 37.1583 16.4151 37.2229C16.3146 37.2588 16.1782 37.2875 16.0059 37.309C15.8336 37.3377 15.6936 37.3521 15.5859 37.3521ZM20.6564 37.3521C20.0104 37.3521 19.4505 37.2408 18.9767 37.0183C18.5101 36.7886 18.1512 36.4655 17.8999 36.0492C17.6487 35.6328 17.523 35.1411 17.523 34.574C17.523 34.0285 17.6415 33.5511 17.8784 33.1419C18.1224 32.7256 18.4526 32.4025 18.869 32.1728C19.2925 31.9359 19.7735 31.8175 20.3119 31.8175C20.7067 31.8175 21.0656 31.8821 21.3886 32.0113C21.7117 32.1333 21.988 32.3164 22.2178 32.5605C22.4475 32.7974 22.6197 33.0845 22.7346 33.4219C22.8566 33.7593 22.9177 34.1361 22.9177 34.5525C22.9177 34.6961 22.8782 34.8037 22.7992 34.8755C22.7202 34.9401 22.5946 34.9724 22.4223 34.9724H19.1274V34.0679H21.5179L21.3456 34.2079C21.3456 33.9423 21.3097 33.727 21.2379 33.5619C21.1661 33.3968 21.0584 33.2711 20.9149 33.185C20.7785 33.0988 20.6062 33.0558 20.398 33.0558C20.1755 33.0558 19.9817 33.1096 19.8166 33.2173C19.6586 33.3178 19.5366 33.4685 19.4505 33.6695C19.3643 33.8705 19.3212 34.1218 19.3212 34.4233V34.5202C19.3212 35.0299 19.4325 35.396 19.655 35.6185C19.8848 35.8338 20.2365 35.9415 20.7103 35.9415C20.8682 35.9415 21.0477 35.9236 21.2487 35.8877C21.4568 35.8446 21.6542 35.7872 21.8409 35.7154C22.0275 35.6436 22.189 35.6328 22.3254 35.6831C22.4618 35.7262 22.5659 35.8051 22.6377 35.92C22.7167 36.0277 22.7597 36.1533 22.7669 36.2969C22.7741 36.4332 22.7418 36.5696 22.67 36.706C22.5982 36.8352 22.4798 36.9357 22.3147 37.0075C22.0634 37.1224 21.7942 37.2085 21.5071 37.2659C21.2271 37.3234 20.9436 37.3521 20.6564 37.3521Z" fill="#FFB99C"/>
<g filter="url(#filter0_d_261_232)">
<path d="M39.1255 38.5683L39.8804 32.6221M39.1255 38.5683L35.7798 35.0344M39.1255 38.5683L33.6989 39.8803" stroke="#161D1D" stroke-width="7.77667" stroke-linecap="round"/>
</g>
</g>
<g filter="url(#filter1_d_261_232)">
<rect width="39.8804" height="13.2935" transform="translate(0 13.2935)" fill="#E1B743"/>
<g filter="url(#filter2_i_261_232)">
<ellipse cx="18.09" cy="17.57" rx="1.33519" ry="1.33072" transform="rotate(-31.1131 18.09 17.57)" fill="#B8932E"/>
</g>
<g filter="url(#filter3_i_261_232)">
<ellipse cx="5.13796" cy="15.0429" rx="0.885976" ry="0.842676" transform="rotate(-31.1131 5.13796 15.0429)" fill="#B8932E"/>
</g>
<g filter="url(#filter4_i_261_232)">
<ellipse cx="7.06501" cy="24.7492" rx="0.761546" ry="0.637599" transform="rotate(-14.6294 7.06501 24.7492)" fill="#B8932E"/>
</g>
<g filter="url(#filter5_i_261_232)">
<ellipse cx="26.8963" cy="18.0907" rx="0.903973" ry="0.927418" transform="rotate(-31.1131 26.8963 18.0907)" fill="#B8932E"/>
</g>
<g filter="url(#filter6_i_261_232)">
<ellipse cx="33.9581" cy="22.6666" rx="1.2379" ry="1.69213" transform="rotate(-31.1131 33.9581 22.6666)" fill="#B8932E"/>
</g>
<g filter="url(#filter7_i_261_232)">
<ellipse cx="23.4696" cy="22.658" rx="1.96117" ry="2.03734" transform="rotate(-31.1131 23.4696 22.658)" fill="#B8932E"/>
</g>
<path d="M2.40199 23.5371C2.11486 23.5371 1.89232 23.4581 1.7344 23.3002C1.58365 23.1423 1.50828 22.9197 1.50828 22.6326V16.6565C1.50828 16.3622 1.59083 16.1397 1.75593 15.9889C1.92104 15.831 2.15434 15.752 2.45583 15.752C2.70708 15.752 2.90449 15.8023 3.04806 15.9028C3.1988 15.9961 3.33519 16.154 3.45723 16.3766L5.77228 20.5329H5.39541L7.6997 16.3766C7.82891 16.154 7.9653 15.9961 8.10887 15.9028C8.25962 15.8023 8.46062 15.752 8.71186 15.752C8.999 15.752 9.21795 15.831 9.36869 15.9889C9.52662 16.1397 9.60558 16.3622 9.60558 16.6565V22.6326C9.60558 22.9197 9.53021 23.1423 9.37946 23.3002C9.22871 23.4581 9.00618 23.5371 8.71186 23.5371C8.42473 23.5371 8.20219 23.4581 8.04427 23.3002C7.89352 23.1423 7.81815 22.9197 7.81815 22.6326V18.9285H8.04427L6.31067 21.9435C6.21017 22.1014 6.10249 22.2198 5.98764 22.2988C5.87996 22.3778 5.7328 22.4173 5.54616 22.4173C5.3667 22.4173 5.21954 22.3778 5.10469 22.2988C4.98983 22.2198 4.88574 22.1014 4.79242 21.9435L3.04806 18.9178H3.29571V22.6326C3.29571 22.9197 3.22034 23.1423 3.06959 23.3002C2.91884 23.4581 2.69631 23.5371 2.40199 23.5371ZM12.8444 25.4753C12.6219 25.4753 12.4424 25.4179 12.306 25.303C12.1696 25.1881 12.0835 25.0374 12.0476 24.8508C12.0189 24.6641 12.0512 24.4667 12.1445 24.2585L12.8659 22.6972V23.4725L11.0246 19.2623C10.9313 19.047 10.899 18.846 10.9277 18.6593C10.9636 18.4727 11.0605 18.3255 11.2185 18.2179C11.3764 18.103 11.5917 18.0456 11.8645 18.0456C12.0942 18.0456 12.2773 18.0994 12.4137 18.2071C12.5573 18.3076 12.6865 18.5086 12.8013 18.8101L13.8781 21.6097H13.512L14.6534 18.7993C14.7682 18.505 14.8974 18.3076 15.041 18.2071C15.1917 18.0994 15.3927 18.0456 15.644 18.0456C15.8593 18.0456 16.0316 18.103 16.1608 18.2179C16.2901 18.3255 16.369 18.4727 16.3977 18.6593C16.4264 18.846 16.3941 19.047 16.3008 19.2623L13.8566 24.7538C13.7273 25.041 13.5838 25.2312 13.4258 25.3245C13.2751 25.425 13.0813 25.4753 12.8444 25.4753Z" fill="#FFF6D2"/>
<path d="M13.3998 26.5802C13.3998 26.5802 3.98807 26.9192 3.98807 29.1724V26.5802H13.3998Z" fill="#E1B743"/>
<path d="M1.91427 31.4656C2.07379 31.2861 1.87439 30.2692 2.99104 30.2692L1.87439 28.9531V30.2692L1.91427 31.4656Z" fill="#E1B743"/>
<path d="M3.0756e-05 31.1067C3.0756e-05 31.6573 0.446407 32.1037 0.99704 32.1037C1.54767 32.1037 1.99405 31.6573 1.99405 31.1067H3.0756e-05ZM3.0756e-05 26.5603V31.1067H1.99405V26.5603H3.0756e-05Z" fill="#E1B743"/>
<path d="M1.99402 29.2722C1.99402 29.8228 2.44039 30.2692 2.99103 30.2692C3.54166 30.2692 3.98804 29.8228 3.98804 29.2722L1.99402 29.2722ZM1.99402 26.5603L1.99402 29.2722L3.98804 29.2722L3.98804 26.5603L1.99402 26.5603Z" fill="#E1B743"/>
</g>
<g filter="url(#filter8_d_261_232)">
<g clip-path="url(#clip2_261_232)">
<rect width="39.8804" height="13.2935" fill="#2FBA71"/>
<path d="M2.47734 10.0969C2.16149 10.0969 1.91742 10.0108 1.74513 9.83848C1.57285 9.65902 1.48671 9.41137 1.48671 9.09551V3.41017C1.48671 3.08714 1.57285 2.83948 1.74513 2.6672C1.9246 2.49492 2.17225 2.40877 2.48811 2.40877H5.13696C5.99837 2.40877 6.66238 2.62054 7.12898 3.04407C7.60276 3.46042 7.83965 4.04187 7.83965 4.78843C7.83965 5.26939 7.73197 5.68933 7.51662 6.04826C7.30844 6.4 7.00336 6.67278 6.60137 6.8666C6.20655 7.05324 5.71841 7.14656 5.13696 7.14656L5.2231 6.95274H5.73995C6.04862 6.95274 6.32141 7.02812 6.55829 7.17886C6.79518 7.32243 6.99259 7.54497 7.15052 7.84646L7.6889 8.81555C7.80376 9.02373 7.8576 9.22832 7.85042 9.42931C7.84324 9.62313 7.76428 9.78465 7.61353 9.91386C7.46996 10.0359 7.25819 10.0969 6.97823 10.0969C6.69827 10.0969 6.46856 10.0395 6.2891 9.92463C6.11682 9.80977 5.96248 9.63031 5.82609 9.38624L4.84623 7.58804C4.76009 7.43011 4.64882 7.32243 4.51243 7.26501C4.38322 7.2004 4.23247 7.1681 4.06019 7.1681H3.46797V9.09551C3.46797 9.41137 3.38541 9.65902 3.22031 9.83848C3.0552 10.0108 2.80755 10.0969 2.47734 10.0969ZM3.46797 5.7683H4.78162C5.16208 5.7683 5.45281 5.69292 5.65381 5.54217C5.85481 5.39143 5.9553 5.15813 5.9553 4.84227C5.9553 4.54078 5.85481 4.31466 5.65381 4.16391C5.45281 4.00598 5.16208 3.92702 4.78162 3.92702H3.46797V5.7683ZM11.1479 10.1184C10.7388 10.1184 10.3763 10.0431 10.0604 9.89232C9.75173 9.74158 9.50766 9.53699 9.3282 9.27856C9.15592 9.01296 9.06978 8.71147 9.06978 8.37408C9.06978 7.98644 9.17027 7.68136 9.37127 7.45882C9.57227 7.23629 9.8953 7.07836 10.3404 6.98505C10.7854 6.88455 11.3777 6.8343 12.117 6.8343H12.7093V7.73878H12.117C11.8371 7.73878 11.6038 7.76032 11.4171 7.80339C11.2377 7.83928 11.1049 7.9003 11.0187 7.98644C10.9326 8.0654 10.8895 8.16949 10.8895 8.2987C10.8895 8.46381 10.9469 8.6002 11.0618 8.70788C11.1838 8.81555 11.3561 8.86939 11.5786 8.86939C11.7581 8.86939 11.916 8.82991 12.0524 8.75095C12.196 8.67198 12.3109 8.56431 12.397 8.42792C12.4831 8.28435 12.5262 8.11924 12.5262 7.9326V6.68355C12.5262 6.42512 12.458 6.24207 12.3216 6.1344C12.1924 6.02672 11.9663 5.97288 11.6433 5.97288C11.471 5.97288 11.2772 5.99442 11.0618 6.03749C10.8464 6.07338 10.606 6.14158 10.3404 6.24207C10.1465 6.31386 9.98144 6.32463 9.84505 6.27438C9.70866 6.22413 9.60098 6.13799 9.52202 6.01595C9.45023 5.89392 9.41434 5.76112 9.41434 5.61755C9.42152 5.47398 9.46818 5.33759 9.55432 5.20837C9.64764 5.07916 9.78762 4.97866 9.97426 4.90688C10.3188 4.77767 10.6347 4.69153 10.9218 4.64845C11.2161 4.60538 11.4853 4.58385 11.7294 4.58385C12.318 4.58385 12.8026 4.66999 13.183 4.84227C13.5707 5.00738 13.8578 5.2658 14.0445 5.61755C14.2383 5.96211 14.3352 6.40718 14.3352 6.95274V9.12782C14.3352 9.44367 14.2598 9.68415 14.1091 9.84925C13.9583 10.0144 13.7394 10.0969 13.4522 10.0969C13.1579 10.0969 12.9318 10.0144 12.7739 9.84925C12.6231 9.68415 12.5477 9.44367 12.5477 9.12782V8.84786L12.6123 8.9986C12.5765 9.22832 12.4939 9.42572 12.3647 9.59083C12.2355 9.75593 12.0668 9.88514 11.8586 9.97846C11.6504 10.0718 11.4135 10.1184 11.1479 10.1184ZM18.6354 10.1184C18.097 10.1184 17.6519 10.0359 17.3002 9.87079C16.9556 9.70568 16.6972 9.45803 16.5249 9.12782C16.3526 8.79043 16.2665 8.37049 16.2665 7.868V6.11286H15.9004C15.6707 6.11286 15.4912 6.05184 15.362 5.92981C15.2399 5.80778 15.1789 5.6319 15.1789 5.40219C15.1789 5.17248 15.2399 5.0002 15.362 4.88534C15.4912 4.76331 15.6707 4.70229 15.9004 4.70229H16.2665V4.0347C16.2665 3.71884 16.349 3.47836 16.5141 3.31326C16.6792 3.14816 16.9161 3.0656 17.2248 3.0656C17.5335 3.0656 17.7704 3.14816 17.9355 3.31326C18.1006 3.47836 18.1831 3.71884 18.1831 4.0347V4.70229H19.0661C19.303 4.70229 19.4824 4.76331 19.6045 4.88534C19.7337 5.0002 19.7983 5.17248 19.7983 5.40219C19.7983 5.6319 19.7337 5.80778 19.6045 5.92981C19.4824 6.05184 19.303 6.11286 19.0661 6.11286H18.1831V7.80339C18.1831 8.06899 18.2441 8.2664 18.3662 8.39561C18.4954 8.51765 18.6964 8.57866 18.9692 8.57866C19.0697 8.57866 19.1666 8.5679 19.2599 8.54636C19.3532 8.52483 19.4393 8.51406 19.5183 8.51406C19.6332 8.50688 19.7265 8.54277 19.7983 8.62173C19.8701 8.69352 19.9059 8.86221 19.9059 9.12782C19.9059 9.34317 19.8736 9.52622 19.809 9.67697C19.7444 9.82054 19.6296 9.92463 19.4645 9.98923C19.364 10.0251 19.2276 10.0538 19.0553 10.0754C18.883 10.1041 18.743 10.1184 18.6354 10.1184ZM23.7059 10.1184C23.0598 10.1184 22.4999 10.0072 22.0261 9.78465C21.5595 9.55494 21.2006 9.2319 20.9493 8.81555C20.6981 8.3992 20.5725 7.90748 20.5725 7.34038C20.5725 6.79482 20.6909 6.31745 20.9278 5.90828C21.1719 5.49192 21.5021 5.16889 21.9184 4.93918C22.3419 4.70229 22.8229 4.58385 23.3613 4.58385C23.7561 4.58385 24.115 4.64845 24.4381 4.77767C24.7611 4.8997 25.0375 5.08275 25.2672 5.32682C25.4969 5.56371 25.6692 5.85085 25.784 6.18824C25.906 6.52562 25.9671 6.90249 25.9671 7.31884C25.9671 7.46241 25.9276 7.57009 25.8486 7.64187C25.7697 7.70648 25.644 7.73878 25.4718 7.73878H22.1768V6.8343H24.5673L24.395 6.97428C24.395 6.70867 24.3591 6.49332 24.2873 6.32822C24.2155 6.16311 24.1078 6.03749 23.9643 5.95135C23.8279 5.8652 23.6556 5.82213 23.4474 5.82213C23.2249 5.82213 23.0311 5.87597 22.866 5.98365C22.708 6.08415 22.586 6.2349 22.4999 6.43589C22.4137 6.63689 22.3707 6.88814 22.3707 7.18963V7.28654C22.3707 7.79621 22.4819 8.16231 22.7045 8.38485C22.9342 8.6002 23.2859 8.70788 23.7597 8.70788C23.9176 8.70788 24.0971 8.68993 24.2981 8.65404C24.5062 8.61097 24.7037 8.55354 24.8903 8.48175C25.0769 8.40997 25.2385 8.3992 25.3748 8.44945C25.5112 8.49252 25.6153 8.57149 25.6871 8.68634C25.7661 8.79402 25.8091 8.91964 25.8163 9.06321C25.8235 9.1996 25.7912 9.33599 25.7194 9.47238C25.6476 9.6016 25.5292 9.70209 25.3641 9.77388C25.1128 9.88873 24.8436 9.97488 24.5565 10.0323C24.2765 10.0897 23.993 10.1184 23.7059 10.1184Z" fill="#D0FFF0"/>
</g>
<path d="M6.59256 7.29626L7.11107 8.22219L5.98145 7.42589L6.59256 7.29626Z" fill="#D0FFF0"/>
<path d="M39.8803 13.287V15.342C39.8803 16.1369 39.633 17.8265 38.644 18.2253C38.3649 18.3383 37.6749 18.4048 37.1485 17.7667C36.6221 17.1286 35.9321 17.2615 35.653 17.4078C35.1478 17.7135 33.97 18.2811 33.3 18.1057C32.6301 17.9302 31.984 17.1485 31.8245 16.7099C31.6849 16.2911 30.9072 15.1346 30.6281 15.0349C30.3489 14.9352 29.7028 14.7876 29.2721 15.4736C28.9464 15.8724 28.2113 16.3868 27.8763 15.2542C27.5413 14.1216 25.5034 13.4663 24.5264 13.2802L39.8803 13.287Z" fill="#2FBA71"/>
</g>
<path d="M31.1024 10.7533C31.4203 8.38718 30.7236 6.60504 30.3355 6.00974L30.9179 6.56799C31.5605 7.98563 31.3087 9.94889 31.1024 10.7533Z" fill="url(#paint0_linear_261_232)"/>
<path d="M36.3276 6.36333C33.8412 6.52835 32.0234 5.75812 31.4253 5.35238L31.9733 5.9416C33.4142 6.63874 35.4766 6.51323 36.3276 6.36333Z" fill="url(#paint1_linear_261_232)"/>
<path d="M33.2873 12.0828C33.8969 10.7125 33.4193 9.3948 33.1043 8.90721L33.6183 9.43112C34.0866 10.5063 33.5928 11.6469 33.2873 12.0828Z" fill="url(#paint2_linear_261_232)"/>
<path d="M37.0741 9.38955C35.5481 9.68036 34.2982 8.9634 33.864 8.56857L34.2946 9.15724C35.2984 9.81592 36.5658 9.58656 37.0741 9.38955Z" fill="url(#paint3_linear_261_232)"/>
<path d="M36.8287 14.9259C32.7163 6.45855 26.5717 2.04181 21.4074 2.4995V0.851807C27.87 0.982721 33.6966 5.22278 36.8287 14.9259Z" fill="url(#paint4_linear_261_232)"/>
</g>
<defs>
<filter id="filter0_d_261_232" x="29.4109" y="28.3345" width="14.3582" height="15.4351" filterUnits="userSpaceOnUse" color-interpolation-filters="sRGB">
<feFlood flood-opacity="0" result="BackgroundImageFix"/>
<feColorMatrix in="SourceAlpha" type="matrix" values="0 0 0 0 0 0 0 0 0 0 0 0 0 0 0 0 0 0 127 0" result="hardAlpha"/>
<feOffset dx="-0.398804" dy="-0.398804"/>
<feComposite in2="hardAlpha" operator="out"/>
<feColorMatrix type="matrix" values="0 0 0 0 0 0 0 0 0 0 0 0 0 0 0 0 0 0 0.15 0"/>
<feBlend mode="normal" in2="BackgroundImageFix" result="effect1_dropShadow_261_232"/>
<feBlend mode="normal" in="SourceGraphic" in2="effect1_dropShadow_261_232" result="shape"/>
</filter>
<filter id="filter1_d_261_232" x="0" y="13.2935" width="39.8804" height="19.4084" filterUnits="userSpaceOnUse" color-interpolation-filters="sRGB">
<feFlood flood-opacity="0" result="BackgroundImageFix"/>
<feColorMatrix in="SourceAlpha" type="matrix" values="0 0 0 0 0 0 0 0 0 0 0 0 0 0 0 0 0 0 127 0" result="hardAlpha"/>
<feOffset dy="0.598205"/>
<feComposite in2="hardAlpha" operator="out"/>
<feColorMatrix type="matrix" values="0 0 0 0 0 0 0 0 0 0 0 0 0 0 0 0 0 0 0.15 0"/>
<feBlend mode="normal" in2="BackgroundImageFix" result="effect1_dropShadow_261_232"/>
<feBlend mode="normal" in="SourceGraphic" in2="effect1_dropShadow_261_232" result="shape"/>
</filter>
<filter id="filter2_i_261_232" x="16.7558" y="16.2379" width="2.6684" height="2.66418" filterUnits="userSpaceOnUse" color-interpolation-filters="sRGB">
<feFlood flood-opacity="0" result="BackgroundImageFix"/>
<feBlend mode="normal" in="SourceGraphic" in2="BackgroundImageFix" result="shape"/>
<feColorMatrix in="SourceAlpha" type="matrix" values="0 0 0 0 0 0 0 0 0 0 0 0 0 0 0 0 0 0 127 0" result="hardAlpha"/>
<feOffset dy="0.279162"/>
<feComposite in2="hardAlpha" operator="arithmetic" k2="-1" k3="1"/>
<feColorMatrix type="matrix" values="0 0 0 0 0 0 0 0 0 0 0 0 0 0 0 0 0 0 0.25 0"/>
<feBlend mode="normal" in2="shape" result="effect1_innerShadow_261_232"/>
</filter>
<filter id="filter3_i_261_232" x="4.26318" y="14.1884" width="1.74954" height="1.70911" filterUnits="userSpaceOnUse" color-interpolation-filters="sRGB">
<feFlood flood-opacity="0" result="BackgroundImageFix"/>
<feBlend mode="normal" in="SourceGraphic" in2="BackgroundImageFix" result="shape"/>
<feColorMatrix in="SourceAlpha" type="matrix" values="0 0 0 0 0 0 0 0 0 0 0 0 0 0 0 0 0 0 127 0" result="hardAlpha"/>
<feOffset dy="0.279162"/>
<feComposite in2="hardAlpha" operator="arithmetic" k2="-1" k3="1"/>
<feColorMatrix type="matrix" values="0 0 0 0 0 0 0 0 0 0 0 0 0 0 0 0 0 0 0.25 0"/>
<feBlend mode="normal" in2="shape" result="effect1_innerShadow_261_232"/>
</filter>
<filter id="filter4_i_261_232" x="6.31061" y="24.1028" width="1.50882" height="1.29272" filterUnits="userSpaceOnUse" color-interpolation-filters="sRGB">
<feFlood flood-opacity="0" result="BackgroundImageFix"/>
<feBlend mode="normal" in="SourceGraphic" in2="BackgroundImageFix" result="shape"/>
<feColorMatrix in="SourceAlpha" type="matrix" values="0 0 0 0 0 0 0 0 0 0 0 0 0 0 0 0 0 0 127 0" result="hardAlpha"/>
<feOffset dy="0.279162"/>
<feComposite in2="hardAlpha" operator="arithmetic" k2="-1" k3="1"/>
<feColorMatrix type="matrix" values="0 0 0 0 0 0 0 0 0 0 0 0 0 0 0 0 0 0 0.25 0"/>
<feBlend mode="normal" in2="shape" result="effect1_innerShadow_261_232"/>
</filter>
<filter id="filter5_i_261_232" x="25.9858" y="17.1693" width="1.82083" height="1.84277" filterUnits="userSpaceOnUse" color-interpolation-filters="sRGB">
<feFlood flood-opacity="0" result="BackgroundImageFix"/>
<feBlend mode="normal" in="SourceGraphic" in2="BackgroundImageFix" result="shape"/>
<feColorMatrix in="SourceAlpha" type="matrix" values="0 0 0 0 0 0 0 0 0 0 0 0 0 0 0 0 0 0 127 0" result="hardAlpha"/>
<feOffset dy="0.279162"/>
<feComposite in2="hardAlpha" operator="arithmetic" k2="-1" k3="1"/>
<feColorMatrix type="matrix" values="0 0 0 0 0 0 0 0 0 0 0 0 0 0 0 0 0 0 0.25 0"/>
<feBlend mode="normal" in2="shape" result="effect1_innerShadow_261_232"/>
</filter>
<filter id="filter6_i_261_232" x="32.5841" y="21.0825" width="2.74799" height="3.16809" filterUnits="userSpaceOnUse" color-interpolation-filters="sRGB">
<feFlood flood-opacity="0" result="BackgroundImageFix"/>
<feBlend mode="normal" in="SourceGraphic" in2="BackgroundImageFix" result="shape"/>
<feColorMatrix in="SourceAlpha" type="matrix" values="0 0 0 0 0 0 0 0 0 0 0 0 0 0 0 0 0 0 127 0" result="hardAlpha"/>
<feOffset dy="0.279162"/>
<feComposite in2="hardAlpha" operator="arithmetic" k2="-1" k3="1"/>
<feColorMatrix type="matrix" values="0 0 0 0 0 0 0 0 0 0 0 0 0 0 0 0 0 0 0.25 0"/>
<feBlend mode="normal" in2="shape" result="effect1_innerShadow_261_232"/>
</filter>
<filter id="filter7_i_261_232" x="21.4875" y="20.6404" width="3.96411" height="4.03528" filterUnits="userSpaceOnUse" color-interpolation-filters="sRGB">
<feFlood flood-opacity="0" result="BackgroundImageFix"/>
<feBlend mode="normal" in="SourceGraphic" in2="BackgroundImageFix" result="shape"/>
<feColorMatrix in="SourceAlpha" type="matrix" values="0 0 0 0 0 0 0 0 0 0 0 0 0 0 0 0 0 0 127 0" result="hardAlpha"/>
<feOffset dy="0.279162"/>
<feComposite in2="hardAlpha" operator="arithmetic" k2="-1" k3="1"/>
<feColorMatrix type="matrix" values="0 0 0 0 0 0 0 0 0 0 0 0 0 0 0 0 0 0 0.25 0"/>
<feBlend mode="normal" in2="shape" result="effect1_innerShadow_261_232"/>
</filter>
<filter id="filter8_d_261_232" x="0" y="0" width="39.8804" height="18.8969" filterUnits="userSpaceOnUse" color-interpolation-filters="sRGB">
<feFlood flood-opacity="0" result="BackgroundImageFix"/>
<feColorMatrix in="SourceAlpha" type="matrix" values="0 0 0 0 0 0 0 0 0 0 0 0 0 0 0 0 0 0 127 0" result="hardAlpha"/>
<feOffset dy="0.598205"/>
<feComposite in2="hardAlpha" operator="out"/>
<feColorMatrix type="matrix" values="0 0 0 0 0 0 0 0 0 0 0 0 0 0 0 0 0 0 0.15 0"/>
<feBlend mode="normal" in2="BackgroundImageFix" result="effect1_dropShadow_261_232"/>
<feBlend mode="normal" in="SourceGraphic" in2="effect1_dropShadow_261_232" result="shape"/>
</filter>
<linearGradient id="paint0_linear_261_232" x1="36.7809" y1="14.903" x2="28.5761" y2="-0.302387" gradientUnits="userSpaceOnUse">
<stop stop-color="#95FFC7"/>
<stop offset="1" stop-color="#2FBA71"/>
</linearGradient>
<linearGradient id="paint1_linear_261_232" x1="36.7809" y1="14.903" x2="28.5761" y2="-0.302387" gradientUnits="userSpaceOnUse">
<stop stop-color="#95FFC7"/>
<stop offset="1" stop-color="#2FBA71"/>
</linearGradient>
<linearGradient id="paint2_linear_261_232" x1="36.7809" y1="14.903" x2="28.5761" y2="-0.302387" gradientUnits="userSpaceOnUse">
<stop stop-color="#95FFC7"/>
<stop offset="1" stop-color="#2FBA71"/>
</linearGradient>
<linearGradient id="paint3_linear_261_232" x1="36.7809" y1="14.903" x2="28.5761" y2="-0.302387" gradientUnits="userSpaceOnUse">
<stop stop-color="#95FFC7"/>
<stop offset="1" stop-color="#2FBA71"/>
</linearGradient>
<linearGradient id="paint4_linear_261_232" x1="36.7809" y1="14.903" x2="28.5761" y2="-0.302387" gradientUnits="userSpaceOnUse">
<stop stop-color="#95FFC7"/>
<stop offset="1" stop-color="#2FBA71"/>
</linearGradient>
<clipPath id="clip0_261_232">
<rect width="40" height="40" rx="4" fill="white"/>
</clipPath>
<clipPath id="clip1_261_232">
<rect width="39.8804" height="13.2935" fill="white" transform="translate(0 26.5869)"/>
</clipPath>
<clipPath id="clip2_261_232">
<rect width="39.8804" height="13.2935" fill="white"/>
</clipPath>
</defs>
</svg>
